<svg viewBox="0 0 1600 600" xmlns="http://www.w3.org/2000/svg">
  <defs>
    <linearGradient id="hg" x1="0" y1="0" x2="1" y2="1">
      <stop offset="0%" stop-color="#DD0000"/>
      <stop offset="55%" stop-color="#F03A3A"/>
      <stop offset="100%" stop-color="#FF7A00"/>
    </linearGradient>
    <radialGradient id="glow" cx="80%" cy="20%" r="60%">
      <stop offset="0%" stop-color="#ffffff" stop-opacity="0.25"/>
      <stop offset="100%" stop-color="#ffffff" stop-opacity="0"/>
    </radialGradient>
  </defs>
  <rect width="1600" height="600" fill="url(#hg)"/>
  <rect width="1600" height="600" fill="url(#glow)"/>
  
  <g transform="translate(1180,120)" opacity="0.9">
    <rect x="0" y="0" width="220" height="280" rx="18" fill="#ffffff" opacity="0.14"/>
    <g transform="translate(30,40)" stroke="#fff" stroke-width="4" fill="none" stroke-linecap="round" stroke-linejoin="round">
      <path d="M20 190l8-32L110 30l30 30L48 168l-28 8z"/>
      <path d="M100 60l30 30"/>
    </g>
  </g>
  <g transform="translate(1300,320)" opacity="0.85">
    <rect x="0" y="0" width="160" height="200" rx="14" fill="#ffffff" opacity="0.16"/>
    <g transform="translate(20,20)" stroke="#fff" stroke-width="4" fill="none" stroke-linecap="round" stroke-linejoin="round">
      <rect x="0" y="0" width="120" height="150" rx="8"/>
      <path d="M40 0v150M0 35h40M0 70h40M0 105h40"/>
    </g>
  </g>

</svg>