<svg viewBox="0 0 1600 600" xmlns="http://www.w3.org/2000/svg">
  <defs>
    <linearGradient id="hg" x1="0" y1="0" x2="1" y2="1">
      <stop offset="0%" stop-color="#B80000"/>
      <stop offset="55%" stop-color="#DD0000"/>
      <stop offset="100%" stop-color="#FF7A00"/>
    </linearGradient>
    <radialGradient id="glow" cx="80%" cy="20%" r="60%">
      <stop offset="0%" stop-color="#ffffff" stop-opacity="0.25"/>
      <stop offset="100%" stop-color="#ffffff" stop-opacity="0"/>
    </radialGradient>
  </defs>
  <rect width="1600" height="600" fill="url(#hg)"/>
  <rect width="1600" height="600" fill="url(#glow)"/>
  
  <g transform="translate(1150,140)" opacity="0.9">
    <rect x="0" y="0" width="240" height="240" rx="18" fill="#ffffff" opacity="0.12"/>
    <g transform="translate(35,45)" stroke="#fff" stroke-width="4" fill="none" stroke-linecap="round" stroke-linejoin="round">
      <path d="M0 40L85 0l85 40-85 40-85-40z"/>
      <path d="M0 40v75l85 40 85-40V40M85 80v75"/>
    </g>
  </g>
  <g transform="translate(1340,340)" opacity="0.85">
    <rect x="0" y="0" width="150" height="130" rx="14" fill="#ffffff" opacity="0.14"/>
    <g transform="translate(20,25)" stroke="#fff" stroke-width="4" fill="none" stroke-linecap="round" stroke-linejoin="round">
      <path d="M0 12a5 5 0 0 1 5-5h25l10 10h45a5 5 0 0 1 5 5v55a5 5 0 0 1-5 5H5a5 5 0 0 1-5-5V12z"/>
    </g>
  </g>

</svg>